<?xml version="1.0" encoding="utf-8"?>
<!-- Generator: Adobe Illustrator 25.0.1, SVG Export Plug-In . SVG Version: 6.00 Build 0)  -->
<svg version="1.0" id="Layer_2" xmlns="http://www.w3.org/2000/svg" xmlns:xlink="http://www.w3.org/1999/xlink" x="0px" y="0px"
	 viewBox="60 0 440 440.60908" style="enable-background:new 0 0 340 340.60908;" xml:space="preserve">
<style type="text/css">
	.st0{fill:#FFB81C;}
	.st1{fill:#6F263D;}
	.st2{fill:#041E42;}
	.st3{fill:#FFFFFF;}
</style>
<g>
	<path class="st0" d="M285.9,369.5c-1.1-0.6-27.3-15.8-53.4-46.5c-24.2-28.4-53-76.3-53-142.6c0-1.9,0-4.1,0-6.7c0-1.1,0-3.6,0-3.6
		v-4.7c0.1-13.8,0.6-40.8,1.7-58.7c0.2-3.7,0.5-6.9,0.7-9.4l0.6-5.8l4.6-3.6c4.4-3.4,10-6.9,16.9-10.4c4.8-2.5,10.3-5,16.3-7.6
		c30.9-14.7,68.2-27.6,68.5-27.8l3.6-1.3L296,42c0.4,0.1,42.1,14.5,73.9,30.1c7.9,3.5,14.7,7.1,20.2,10.4c2.9,1.8,5.4,3.5,7.6,5.2
		l4.6,3.6l0.6,5.8c0.1,1.2,0.2,2.6,0.4,4.2c1.3,17.1,2,48.3,2.1,64v5.6v2.8c0,2.5,0,4.7,0,6.7c0,66.3-28.8,114.1-53,142.6
		c-26.2,30.8-52.3,45.9-53.4,46.5l-6.7,3.8L285.9,369.5z"/>
	<path class="st1" d="M292.5,43.1l1.1,0.4l1.8,0.6c0.4,0.1,42.2,14.5,73.7,30c7.9,3.5,14.6,7,20,10.3c2.8,1.7,5.3,3.4,7.5,5.1
		l2.7,2.1l1.2,0.9l0.2,1.5l0.3,3.4c0.1,1.2,0.2,2.5,0.4,4.1c1.3,17,2,48.2,2.1,63.8c0,1.6,0,3.2,0,4.5v1.1c0,0.8,0,1.6,0,2.3v0.4
		c0,2.5,0,4.8,0,6.7c0,65.7-28.5,113-52.5,141.2c-25.9,30.4-51.7,45.4-52.8,46l-3.9,2.2l-1.7,1l-1.7-1l-3.9-2.2
		c-1.1-0.6-26.9-15.6-52.8-46c-23.9-28.2-52.5-75.5-52.5-141.2c0-1.9,0-4.1,0-6.7v-0.4c0-0.8,0-1.6,0-2.4v-0.9v-0.2
		c0-1.4,0-2.9,0-4.5c0.1-13.8,0.6-40.8,1.7-58.6c0.2-3.7,0.5-6.8,0.7-9.3l0.3-3.4l0.2-1.5l1.2-0.9l2.7-2.1
		c4.3-3.3,9.8-6.7,16.6-10.2c4.7-2.5,10.2-5,16.2-7.5c30.8-14.6,68-27.6,68.4-27.7l1.8-0.6L292.5,43.1 M292.5,38.6l-1.4,0.5
		l-1.1,0.4l-1.8,0.6c-0.3,0.1-37.9,13.2-68.8,27.9c-6,2.5-11.5,5.1-16.3,7.6c-6.9,3.6-12.7,7.2-17.2,10.6l-2.7,2.1l-1.2,0.9
		l-1.4,1.1l-0.2,1.8l-0.2,1.5l-0.3,3.4c-0.3,2.6-0.5,5.8-0.7,9.5c-1.1,18-1.6,45.1-1.7,58.8c0,1.6,0,3.2,0,4.6l0,0v0.2v0.8
		c0,0.8,0,1.7,0,2.5v0.4c0,2.5,0,4.8,0,6.6c0,66.9,29.1,115.2,53.5,143.9c26.4,31,52.8,46.3,53.9,47l3.9,2.2l1.7,1l2.1,1.2l2.1-1.2
		l1.7-1l3.9-2.2c1.1-0.6,27.5-15.9,53.9-47c24.4-28.7,53.5-77,53.5-143.9c0-1.9,0-4.2,0-6.8v-0.3V173c0-0.7,0-1.4,0-2.1v-1.1
		c0-1.4,0-2.9,0-4.5c-0.1-15.7-0.8-47-2.1-64.1c-0.1-1.7-0.3-3-0.4-4.2l-0.3-3.4l-0.2-1.5l-0.2-1.8l-1.4-1.1l-1.2-0.9l-2.7-2.1
		c-2.3-1.8-4.9-3.6-7.8-5.4c-5.6-3.4-12.5-7-20.5-10.6c-31.3-15.4-72.3-29.5-74-30.1l-1.8-0.6l-1.1-0.4L292.5,38.6z"/>
	<path d="M399.9,171c0,0.8,0,1.5,0,2.3v0.5c0,2.5,0,4.8,0,6.7c0,64.6-28.1,111.2-51.7,138.9c-25.5,30-50.8,44.7-51.9,45.3l-3.9,2.2
		l-3.9-2.2c-1.1-0.6-26.4-15.3-51.9-45.3c-23.5-27.7-51.6-74.3-51.6-138.9c0-1.9,0-4.2,0-6.7v-0.4c0-0.8,0-1.6,0-2.4v-0.9V170
		c0-1.3,0-2.9,0-4.5c0.1-13.7,0.6-40.6,1.7-58.4c0.2-3.6,0.5-6.7,0.7-9.2l0.3-3.4l2.7-2.1c4.1-3.2,9.5-6.5,16-9.9
		c4.7-2.4,10.1-4.9,16-7.5c30.5-14.5,67.7-27.5,68.1-27.6l1.8-0.6l1.8,0.6c0.4,0.1,41.9,14.4,73.3,29.9c7.7,3.5,14.4,6.9,19.7,10.2
		c2.7,1.6,5.1,3.3,7.2,4.9l2.7,2.1l0.3,3.4c0.1,1.2,0.2,2.6,0.4,4.1c1.3,16.9,2,48,2.1,63.6c0,1.6,0,3.1,0,4.5L399.9,171L399.9,171z
		"/>
	<g>
		<g>
			<path class="st0" d="M305.7,231.4c-0.2,0.4,44.5-25.7,44.5-25.7v-8.9l-2.2-2.2c-12-11.4-29.9-11.5-48.1-6.6V94.8
				c0-6.1,0.1-12-0.4-17.4c-0.5-5.5-1.6-10.9-4-15.8l-3-6.2l-2.9,6.3c-2.4,5.3-3.5,10.8-4.1,16.4c-0.5,5.5-0.5,11.4-0.6,17.5
				l-0.4,97.6c-18.7,7.7-35.9,18.9-45.1,26.5l-10.1,15.6l12.5-3.1c-19.2,24.2-12.4,40-11.6,41.6c2,5.7,6.7,10.3,14.2,13.3
				c5.7,2.3,12.2,2.6,17.7,2.3c6.9-0.3,14.2-1.9,21.5-4.2v3.1c-6.3,3.4-11.3,9.4-14,16.6c-1,2.8-1.7,5.8-1.8,8.9
				c0,0.5,0,2.2-0.2,4.6c-0.2,2.2-0.5,5-1.3,7.8l-0.5,1.6l-1.6,3.9c0.2,0.7,4.6-0.8,6.7-1.6c0.3-0.1,0.8-0.3,1.4-0.6
				c1.1-0.6,2.5-1.6,4.2-3.2c1-1,2-2.2,2.8-3.2s1.5-2,2.1-2.9c0.9-1.2,1.7-2.4,2.5-3.6L284,327v6.9v1.8c-0.3,0.4-0.7,1-1.1,1.7
				c-0.9,1.7-3.2,7.3-3.4,10.4c-0.1,0.7,2.1,0.6,5.3,0.5c0.4,0,1.1-0.1,1.8-0.2c1.4-0.2,3.4-0.6,5.4-1.2c3.6-1.1,9.3-3.7,10.1-9.4
				l0.3-2l-0.6-0.4c7.6-6.7,9.7-14,9.4-20c-0.1-2.1-0.5-4-0.9-5.6l2.7,0.5l3.2,0.6l0.6-3.2c1.9-11-4.3-20.2-16.8-22V279
				c12.2-5.8,23.7-13.4,32.8-21.3l0.4-0.4l3.6-18.3l-7.1,3.9c-11.5,5-21.9,9-29.7,11.8v-41.5c2.2-1.3,4.4-2.4,6.6-3.3
				c5.8-2.5,9.6-3.4,11.4-3.2c-0.5,1.5-1.3,3.4-2.4,5.6C315.4,212.2,306.1,230.6,305.7,231.4 M280.9,228.2c1-1.1,2.2-2.2,3.4-3.3
				l-0.1,14.5l0,0L284,260c-12.1,3.7-17.8,4.3-22,3.3l-0.5-0.1c-1.2-0.5-1.4-1.5-1.4-1.8C259.9,253.2,273.8,235.8,280.9,228.2"/>
			<path class="st2" d="M347.6,204.2l-0.1-5.8l-29.3,17.9c-0.2,0.5-4,7.9-4.4,8.3L347.6,204.2z"/>
			<path class="st2" d="M237.3,230.4c3.2-0.8,6.8-1.7,10.4-2.6c2-2.4,4-4.5,5.8-6.3c-3.7,0.8-7.7,1.8-11.7,2.7
				C241.1,225.2,237.8,229.8,237.3,230.4"/>
			<path class="st2" d="M296.9,271.6c-1.5,0.7-3.1,1.4-4.6,2.1c-1,0.4-2,0.9-2.9,1.3c-0.7,0.3-1.4,0.5-2,0.8
				c-9.3,3.6-18.7,6-27.4,6.4c-5.4,0.3-11.3-0.1-16.3-2.1c-4.6-1.8-7.9-4.3-10-7c1.6,4.7,5.4,8.6,12.3,11.4c5.1,2,10.9,2.3,16.3,2.1
				c8-0.4,16.5-2.4,25-5.5c0.7-0.2,1.4-0.5,2-0.7c1-0.4,2-0.8,3-1.2c1.5-0.6,3.1-1.3,4.6-2c12.6-5.8,24.6-13.6,33.9-21.7l1.7-8.1
				C323.3,256.2,310.5,265,296.9,271.6"/>
			<path class="st2" d="M296.9,288.4v-7.8c-1.5,0.7-3.1,1.3-4.6,2v8.1c0,1.9-3.1,2.3-3,0.8v-7.7c-0.7,0.3-1.4,0.5-2.1,0.7l-0.1,6.1
				l-0.4,0.3c-6.1,2.9-11.2,8.5-13.7,15.3c0,0.1-0.1,0.2-0.1,0.3c-0.9,2.5-1.5,5.2-1.6,8c-0.1,1,0.1,7-1.7,13c0,0,1.6-0.3,4.7-3.2
				c1.7-1.6,3.2-4,4.5-5.6c2.8-3.9,5.1-7.8,8.4-9.5v3.5c0,6.6,0.1,24.5,0.1,24.6s-2.8,3.1-3.2,8.2c0,0.2,13.9-0.8,14.9-8
				c0,0-2.7-1.8-2.6-1.8c19.6-13.6,8.7-29.9,8.7-29.9c4.7,0.7,7.4,1.1,8.6,1.4C315.5,297.1,309.6,289,296.9,288.4 M291.6,335.7
				c0,1.2-2.5,1.2-2.5,0.3l0.1-28.1c0.2-0.2,1.9-1,2.6-1.1L291.6,335.7z M294.9,332.8c6.1-14.7,1.6-25.5,1.7-25.7
				C304.2,308.1,306.6,324.5,294.9,332.8 M302.5,327.1c2.9-6.1,3.7-16.8-2.9-21.5h2.3C308.4,311,305.5,324.7,302.5,327.1
				 M311.4,304.1c-10.9-3-23.7-0.3-29.6,6.7c-2.4,2.9-4.6,7.2-8.8,11.5c0.9-5.3,0.9-7,1-8.9c0.7-8.4,5.1-15.6,13.9-19.8
				c0,0.3,0.1,0.7,0.3,1c0.4,0.6,1,1,1.9,1.2c0.8,0.1-0.5-0.2,0,0c0.1,0,0.3,0.1,0.4,0.1h0.1c0.1,0,0.2,0,0.4,0h0.1
				c0.1,0,0.2,0,0.3,0h0.1c0.1,0,0.3,0,0.5,0c0.1,0,0.3,0,0.4-0.1c0,0,0,0,0.1,0c0.1,0,0.2-0.1,0.4-0.1l0,0c0.3-0.1,0.5-0.2,0.8-0.3
				c0.9-0.3,1.7-0.8,2-1.4l0,0c0.1-0.1,0.2-0.3,0.2-0.4c3.2,0.7,5.9,2.3,7.1,4.2c-5.7-0.3-13.9,1.6-20.8,9.5
				c9.4-7.4,20.1-7.5,27-5.7c0.2-4.1-5.4-8.5-8.5-10.3C306.5,293.3,312.5,298.2,311.4,304.1"/>
		</g>
		<path class="st1" d="M296.9,259.5c-1.7,0.6-3.3,1.1-4.6,1.6c-1.1,0.4-2.1,0.7-2.9,1c-0.8,0.3-1.5,0.5-2,0.6
			c-0.7,0.2-1.1,0.3-1.1,0.3c-51.5,16-35-17.4-11.5-42.5c1.6-1.7,5.2-5.1,9.4-8.5l0.1-14.8c-17.3,7.3-33.3,17.7-42.5,25.2
			c5.9-1.6,11.9-2.9,17.8-4.3c-51.2,48.9-21.5,74.8,27.5,55.2c0.7-0.3,1.3-0.6,2-0.9c1-0.4,1.9-0.8,2.9-1.3c1.5-0.7,3.1-1.4,4.6-2.2
			c11-5.4,22.6-13,34.4-22.9C317.5,252.1,305.2,256.6,296.9,259.5z"/>
		<path class="st1" d="M346,197.1c-11.2-10.7-28.5-10.5-46.1-5.5V202c13.5-6.6,29.2-8.7,18.7,11.9L346,197.1z"/>
		<path class="st2" d="M303.2,202.7c-1,0.4-2.1,1-3.3,1.5v5.6c2-1.1,3.8-2.1,5.6-2.8c6.1-2.6,11.3-4.2,14.2-3.3
			C320.1,197,312.7,198.7,303.2,202.7z"/>
		<g>
			<path class="st2" d="M284.3,214.6c-2.9,2.4-5.6,4.9-7.9,7.3c-6.6,7.1-21.9,25.7-21.7,35.4c0.1,2.6,1,4.3,2.4,5.5
				c0-0.4-0.1-0.8-0.1-1.2c-0.2-9.7,15.1-28.3,21.7-35.4c1.6-1.7,3.5-3.5,5.5-5.3L284.3,214.6z"/>
			<path class="st2" d="M292.9,63.3c-4.4,9.7-4.3,20.6-4.4,32.6l-0.3,88.4l0,0l-0.4,40.9l0,0l-0.1,11.7l0,0l-0.2,22.3
				c0.5-0.2,1.2-0.4,2-0.6l0.1-23.2l0,0l0.1-18.8v-6.1V208l0.1-12.9l0.2-83.6l0.1-32c0.5,0.9,2.3,4.5,2.4,17l-0.1,97.6v12v2.4v6V233
				l0,0l0,0l-0.1,24.6c1.4-0.5,2.9-1,4.6-1.6v-26.8l0,0v-4v-27.3v-4.7v-0.7v-1.3v-7l0,0V95C297,83,297.3,72.1,292.9,63.3z"/>
		</g>
	</g>
	<path d="M395.3,198.5c0,0-86.4-49.2-206.7,0c-0.7-10.9,7.2-104.1,7.2-104.1h195.7L395.3,198.5z"/>
	<path class="st3" d="M358,129h-5.7h-7.1c0.2,1.1,0.3,1.7,0.5,2.8c0,3.7,0,7.5,0,11.2c0,1.1,0,1.7,0,2.8c0,9.3,0,18.7,0.1,28
		c2.6,0.2,4,0.3,6.6,0.6c0.4,0,0.6,0.1,0.9,0.1c0-3.8,0-5.7,0-9.5c0-3.4,0-5.1,0-8.5c0.8-0.5,1.2-0.7,2-1.2c1.9,2.9,2.8,4.4,4.7,7.4
		c0,4.2,0,8.3,0,12.5c3,0.3,4.5,0.5,7.5,0.8c0-5.2,0-10.4,0-15.6c-2.1-2.9-4.1-5.8-6.2-8.7c2.5-1.6,3.7-2.4,6.2-4
		c0-3.9,0-7.8,0-11.7c-2.6-2.8-4-4.1-6.6-6.8H358V129z M353.4,147c0-0.4,0-0.6,0-0.9c0-1.1,0-1.7,0-2.8v-6.6c0.4,0,0.6,0,0.9,0
		c1.9,0,2.8,0,4.7,0.1c0.4,0.4,0.6,0.6,0.9,1c0,2.3,0,3.5,0,5.8c0,0.4,0,0.6,0,1c-2.6,1.8-4,2.7-6.6,4.5
		C353.4,148.1,353.4,147.7,353.4,147"/>
	<path class="st3" d="M342.5,136.4c0-3,0-4.5,0-7.4h-10.4H325c0.2,1.1,0.3,1.6,0.5,2.7c0,13.6,0.1,27.2,0.1,40.8
		c5.7,0.3,11.3,0.7,17,1.1c0-3,0-4.5,0-7.4c-3.8-0.2-5.7-0.3-9.4-0.5c0-4.4,0-8.8,0-13.3c3,0.1,4.5,0.2,7.5,0.3c0-2.6,0-3.9,0-6.5
		c-3-0.1-4.5-0.1-7.5-0.2c0-3.8,0-5.8,0-9.6C336.8,136.3,338.7,136.4,342.5,136.4"/>
	<path class="st3" d="M312.8,129c0.2,1.1,0.3,1.6,0.5,2.7c0,4.8,0,9.6,0,14.3c0,1.1,0,1.6,0,2.7c0,7.8,0,15.5,0,23.3
		c3,0.1,4.5,0.1,7.6,0.3c0-2.9,0-4.3,0-7.2c0-5.4,0-10.8,0-16.2c0-1.1,0-1.6,0-2.7c0-4.8,0-9.6,0-14.4c0.2-1.1,0.3-1.6,0.4-2.7h-8.5
		V129z"/>
	<path class="st3" d="M242.9,173.6c-2.2-14.9-4.4-29.8-6.5-44.6h-12.3c0.2,1.2,0.3,1.7,0.5,2.9c-2.1,14.7-4.2,29.4-6.2,44.1
		c3-0.3,4.5-0.5,7.5-0.8c0.5-3.7,0.7-5.6,1.2-9.2c1.4-0.1,2.1-0.2,3.6-0.3c1.4-0.1,2.1-0.2,3.6-0.3c0.4,3.6,0.7,5.3,1.1,8.9
		C238.4,174,239.9,173.9,242.9,173.6 M228.1,158.2c0.9-7,1.8-14.1,2.7-21.1c0.9,6.9,1.7,13.9,2.6,20.8
		C231.2,158,230.2,158.1,228.1,158.2"/>
	<path class="st3" d="M288.2,171.7c-2.2-14.2-4.4-28.5-6.6-42.7h-12.3c0.2,1.1,0.3,1.6,0.5,2.7c-2.1,13.6-4.1,27.1-6.2,40.7
		c3-0.1,4.5-0.2,7.6-0.3c0.5-3.4,0.7-5.1,1.2-8.6c1.4,0,2.1-0.1,3.6-0.1c1.4,0,2.1,0,3.6-0.1c0.5,3.4,0.7,5.1,1.1,8.5
		C283.7,171.7,285.2,171.7,288.2,171.7 M273.3,156.3c0.9-6.6,1.8-13.1,2.7-19.7c0.9,6.5,1.7,13.1,2.6,19.6
		C276.5,156.2,275.5,156.3,273.3,156.3"/>
	<path class="st3" d="M258.1,129c-1.6,12-3.2,24.1-4.8,36.1c-1.6-12-3.1-24.1-4.6-36.1h-7.5c1.8,12.9,3.5,25.9,5.3,38.8
		c1.7,2.1,2.5,3.2,4.2,5.3c3.3-0.2,5-0.3,8.3-0.5c2.2-14.5,4.4-29.1,6.7-43.6C265.7,129,258.1,129,258.1,129z"/>
	<path class="st3" d="M216.1,140.8c0-2,0-3,0-4.9c-2.6-2.7-3.9-4.1-6.6-6.9h-8c-2.6,2.9-4,4.3-6.6,7.3v42.9c2.6,2.5,3.9,3.8,6.6,6.2
		c3.2-0.5,4.8-0.8,8-1.2c2.6-3.2,4-4.8,6.6-7.8c0-5.6,0-8.3,0-13.9c-2.5,2.9-5.1,5.7-7.5,8.7c0,2.8,0,1.4,0,4.2
		c-0.4,0.4-0.6,0.7-0.9,1.1c-1.7,0.2-2.5,0.3-4.2,0.6c-0.4-0.4-0.6-0.5-0.9-0.9c0-12.6,0-25.2,0-37.8c0.4-0.4,0.6-0.6,0.9-1
		c1.7,0,2.5-0.1,4.2-0.1c0.4,0.4,0.6,0.6,0.9,1c0,3.7,0,7.4,0,11.1C211.1,146.3,213.6,143.5,216.1,140.8"/>
	<path class="st3" d="M392,149.8v-13.5c-2.6-3-4-4.4-6.6-7.3h-5.7h-2.8c-2.6,2.8-4,4.2-6.6,6.9c0,1.6,0,2.4,0,3.9
		c0,4.1,0,6.2,0,10.3c4.8,4.3,9.5,8.6,14.1,13.1c0,4.3,0,8.5,0,12.8c-0.4,0.4-0.6,0.5-0.9,0.9c-1.9-0.3-2.8-0.4-4.7-0.6
		c-0.4-0.5-0.6-0.7-0.9-1.1c0-3.8,0-7.2,0-7.2l-7.5-5.6v13.9c0,0,4,4.6,6.6,7.8c2.3,0.3,3.4,0.5,5.6,0.9c1.1,0.2,1.7,0.3,2.8,0.5
		c2.6-2.4,3.9-3.7,6.6-6.2V175v-15.2c-4.6-4.5-9.3-9-14.1-13.3c0-3.4,0-5.1,0-8.5c0.4-0.4,0.6-0.6,0.9-1c1.9,0,2.8,0.1,4.7,0.1
		c0.4,0.4,0.6,0.6,0.9,1c0,3.5,0,5.9,0,5.9S389,147.4,392,149.8"/>
	<path class="st3" d="M290.1,129c0.4,0.9,0.6,1.3,0.9,2.2c0,4.9,0,9.8,0,14.7v2.7c0,7.7,0,15.4,0,23.1c5.8,0,11.7,0.1,17.5,0.2
		c0.6-2.8,0.8-4.3,1.4-7.1c-3.8-0.1-7.6-0.1-11.3-0.2c0-5.3,0-10.7,0-16c0-1.1,0-1.6,0-2.7c0-4.9,0-9.8,0-14.7
		c0.4-0.9,0.6-1.3,0.9-2.2H290.1z"/>
	<path class="st3" d="M343.1,103l-3.1-3.1h-7.1v21.2h7.3l2.9-2.9L343.1,103L343.1,103z M339.6,117.2l-0.4,0.4h-2.7v-14.1h0.4h2.2
		l0.4,0.4v13.3H339.6z"/>
	<polygon class="st3" points="273.7,103.5 273.7,99.9 268.8,99.9 265.5,99.9 265.7,101.3 265.7,121.2 273.7,121.2 273.7,117.6 
		269.3,117.6 269.3,111.2 272.8,111.2 272.8,108.1 269.3,108.1 269.3,103.5 	"/>
	<polygon class="st3" points="296.7,121.2 296.7,117.6 292.2,117.6 292.2,111.2 295.8,111.2 295.8,108.1 292.2,108.1 292.2,103.5 
		296.7,103.5 296.7,99.9 291.8,99.9 288.5,99.9 288.7,101.3 288.7,121.2 	"/>
	<polygon class="st3" points="298.4,109.7 298.4,121.2 306.6,121.2 307.3,117.6 302,117.6 302,109.7 302,108.3 302,101.3 
		302.2,99.9 298.2,99.9 298.4,101.3 298.4,108.3 	"/>
	<polygon class="st3" points="255.3,109.7 255.3,121.2 263.5,121.2 264.2,117.6 258.9,117.6 258.9,109.7 258.9,108.3 258.9,101.3 
		259.1,99.9 255.1,99.9 255.3,101.3 255.3,108.3 	"/>
	<path class="st3" d="M312.5,117h1.7h1.7l0.5,4.2h3.5l-3.1-21.2H311l0.2,1.3l-2.9,19.9h3.5L312.5,117z M314.1,103.7l1.2,9.7h-2.5
		L314.1,103.7z"/>
	<polygon class="st3" points="278.8,99.9 275.2,99.9 277.8,118.5 279.8,121.2 283.6,121.2 286.7,99.9 283.2,99.9 281,117.4 	"/>
	<polygon class="st3" points="324.8,109.7 324.8,109.6 328.1,121.2 328.1,121.2 331.4,121.2 331.4,99.9 327.8,99.9 327.9,110.7 
		324.5,99.9 321,99.9 321.2,101.3 321.2,121.2 324.8,121.2 	"/>
	<polygon class="st3" points="253.8,105.2 253.8,103 250.7,99.9 246.9,99.9 243.8,103 243.8,118.1 246.9,121.2 250.7,121.2 
		253.8,118.1 253.8,112.4 250.2,116 250.2,117.2 249.8,117.6 247.8,117.6 247.3,117.2 247.3,103.9 247.8,103.4 249.8,103.4 
		250.2,103.9 250.2,108.8 	"/>
</g>
</svg>
