<svg height="251.169141" viewBox="0 0 96.87299 61.17517" width="398.138081" xmlns="http://www.w3.org/2000/svg"><g fill="#001644"><path d="m18.23169 56.508h2.536c.77 0 2.035 0 2.035 1.397 0 1.39-1.265 1.39-2.035 1.39h-1.647v1.767h-.889zm2.73 2.024c.508 0 .952-.044.952-.633 0-.582-.444-.626-.952-.626h-1.841v1.259z"/><path d="m26.571 56.508h4.083v.765h-3.194v1.058h2.749v.764h-2.749v1.203h3.269v.763h-4.158z"/><path d="m34.567 56.508h.889v3.764h3.3v.789h-4.189z"/><path d="m42.61909 56.50797h.88901v4.55301h-.88901z"/><path d="m52.55251 59.43976c-.088.507-.451 1.735-2.542 1.735a2.33715 2.33715 0 0 1 -2.574-2.462c0-1.328.832-2.317 2.642-2.317 2.036 0 2.336 1.322 2.405 1.566h-.889a1.441 1.441 0 0 0 -1.465-.802 1.63042 1.63042 0 1 0 -.051 3.25 1.51869 1.51869 0 0 0 1.584-.97z"/><path d="m58.211 56.50858h1.015l2.21 4.553h-.939l-.476-1.045h-2.624l-.482 1.045h-.946zm1.459 2.743-.952-2.03-.951 2.03z"/><path d="m65.148 56.508h.939l3.044 3.288v-3.288h.851v4.553h-.814l-3.169-3.407v3.407h-.851z"/><path d="m77.72681 57.89316c-.144-.408-.513-.759-1.597-.759-.601 0-1.209.151-1.209.571 0 .194.113.4 1.021.513l1.077.162c1.021.157 1.622.553 1.622 1.316 0 1.078-1.027 1.479-2.242 1.479-1.954 0-2.43-.965-2.536-1.31l.858-.269c.163.332.501.814 1.704.814.726 0 1.327-.238 1.327-.632 0-.294-.338-.489-.99-.57l-1.089-.151c-1.052-.144-1.641-.602-1.641-1.296 0-1.365 1.772-1.365 2.123-1.365 1.96 0 2.299.908 2.411 1.221z"/><path d="m45.42789 47.3483v-2.697a2.28856 2.28856 0 0 0 -.199-.983 1.91314 1.91314 0 0 0 -.547-.693 2.3024 2.3024 0 0 0 -.822-.406 3.97308 3.97308 0 0 0 -2.039 0 2.35279 2.35279 0 0 0 -.829.406 1.87124 1.87124 0 0 0 -.555.693 2.28841 2.28841 0 0 0 -.199.983v2.7a.57676.57676 0 0 0 0 1.141v3.023a2.29159 2.29159 0 0 0 .199.985 1.9277 1.9277 0 0 0 .555.7 2.2843 2.2843 0 0 0 .829.414 3.94528 3.94528 0 0 0 2.039 0 2.23627 2.23627 0 0 0 .822-.414 1.97247 1.97247 0 0 0 .547-.7 2.29174 2.29174 0 0 0 .199-.985v-3.019a.577.577 0 0 0 0-1.148m-1.449 4.109a1.06559 1.06559 0 0 1 -.103.494.96532.96532 0 0 1 -.266.325 1.07653 1.07653 0 0 1 -.363.185 1.40809 1.40809 0 0 1 -.407.06 1.48154 1.48154 0 0 1 -.414-.06 1.05128 1.05128 0 0 1 -.369-.185.92056.92056 0 0 1 -.266-.325 1.05291 1.05291 0 0 1 -.104-.494v-6.744a1.06587 1.06587 0 0 1 .104-.497.94433.94433 0 0 1 .266-.324 1.086 1.086 0 0 1 .369-.185 1.48 1.48 0 0 1 .414-.059 1.407 1.407 0 0 1 .407.059 1.114 1.114 0 0 1 .363.185.99174.99174 0 0 1 .266.324 1.07872 1.07872 0 0 1 .103.497z"/><path d="m17.9476 49.83066c0 .029-.007.033-.022.016-.014-.023-.027-.042-.036-.06q-.06-.1935-.238-.769-.177-.57751-.406-1.34-.231-.76049-.488-1.597-.25952-.83547-.481-1.538c-.148-.469-.272-.858-.37-1.175q-.147-.474-.147-.503a.50693.50693 0 0 0 -.134-.23.38463.38463 0 0 0 -.266-.082h-1.671v.489a.93534.93534 0 0 0 .074.406.723.723 0 0 0 .178.245.76229.76229 0 0 0 .251.163v3.499a.57814.57814 0 0 0 0 1.137v5.135h1.301v-7.05c0-.059.006-.083.014-.074a.13827.13827 0 0 1 .031.044c0 .009.049.171.147.481.099.311.222.697.37 1.162q.222.69451.481 1.507.258.8145.488 1.532c.153.476.283.888.391 1.227.109.34.173.533.193.584a2.66416 2.66416 0 0 0 .155.414.28354.28354 0 0 0 .274.162h.858a.31593.31593 0 0 0 .266-.118.43623.43623 0 0 0 .089-.265v-4.755a.5764.5764 0 0 0 0-1.109v-3.41a.46745.46745 0 0 1 .051-.191.57639.57639 0 0 1 .097-.119 1.2024 1.2024 0 0 0 .236-.251.69155.69155 0 0 0 .118-.416v-.429l-1.804.014z"/><path d="m75.2861 49.83066c0 .029-.008.033-.023.016-.015-.023-.026-.042-.036-.06-.041-.129-.119-.385-.237-.769q-.177-.57751-.408-1.34c-.153-.507-.314-1.04-.488-1.597q-.25648-.83547-.479-1.538c-.149-.469-.272-.858-.371-1.175-.098-.316-.148-.484-.148-.503a.496.496 0 0 0 -.132-.23.38912.38912 0 0 0 -.267-.082h-1.67v.489a.93551.93551 0 0 0 .074.406.71932.71932 0 0 0 .176.245.782.782 0 0 0 .253.163v3.499a.57814.57814 0 0 0 0 1.137v5.135h1.301v-7.05c0-.059.004-.083.014-.074a.13873.13873 0 0 1 .03.044c0 .009.05.171.148.481.098.311.221.697.369 1.162.149.463.308.965.482 1.507q.258.8145.487 1.532c.153.476.283.888.392 1.227.109.34.172.533.193.584a2.66628 2.66628 0 0 0 .155.414.28264.28264 0 0 0 .274.162h.858a.31588.31588 0 0 0 .266-.118.44153.44153 0 0 0 .088-.265v-4.756a.57538.57538 0 0 0 0-1.108v-3.41a.46718.46718 0 0 1 .051-.191.577.577 0 0 1 .097-.119 1.20246 1.20246 0 0 0 .236-.251.68493.68493 0 0 0 .118-.416v-.429l-1.803.014z"/><path d="m82.2077 48.18918a5.89605 5.89605 0 0 0 -.75-.566.59864.59864 0 0 0 .021-.146.58109.58109 0 0 0 -.58-.58.57285.57285 0 0 0 -.367.135c-.047-.032-.097-.063-.143-.094a5.00969 5.00969 0 0 1 -.695-.54.77151.77151 0 0 1 -.282-.561v-1.465a.44252.44252 0 0 1 .105-.288.87887.87887 0 0 1 .266-.214 1.36864 1.36864 0 0 1 .34-.132 1.39269 1.39269 0 0 1 .34-.046 1.75553 1.75553 0 0 1 .333.036 1.35715 1.35715 0 0 1 .339.119.779.779 0 0 1 .26.215.49253.49253 0 0 1 .103.31v.548a.7775.7775 0 0 0 .253.592.87183.87183 0 0 0 .619.236h.666v-1.096a2.37031 2.37031 0 0 0 -.191-.984 1.86519 1.86519 0 0 0 -.54-.693 2.51319 2.51319 0 0 0 -.814-.415 3.51384 3.51384 0 0 0 -1.013-.14 3.83242 3.83242 0 0 0 -1.006.126 2.20737 2.20737 0 0 0 -.799.399 1.86065 1.86065 0 0 0 -.532.696 2.42577 2.42577 0 0 0 -.191 1.011v1.052a1.95552 1.95552 0 0 0 .272 1.057 3.01892 3.01892 0 0 0 .688.762 7.18381 7.18381 0 0 0 .874.585.56774.56774 0 0 0 -.053.237.57808.57808 0 0 0 1.023.371 3.007 3.007 0 0 1 .633.587 1.30992 1.30992 0 0 1 .274.837v1.568a.58042.58042 0 0 1 -.112.348 1.00727 1.00727 0 0 1 -.287.266 1.79366 1.79366 0 0 1 -.384.178 1.25393 1.25393 0 0 1 -.4.066 1.42618 1.42618 0 0 1 -.399-.06 1.49392 1.49392 0 0 1 -.378-.162 1.03621 1.03621 0 0 1 -.281-.252.55557.55557 0 0 1 -.11-.34v-.635a.69051.69051 0 0 0 -.199-.527.86536.86536 0 0 0 -.6-.185h-.71v1.111a2.13791 2.13791 0 0 0 .215.984 1.97133 1.97133 0 0 0 .577.694 2.4862 2.4862 0 0 0 .85.408 4.124 4.124 0 0 0 2.07 0 2.54891 2.54891 0 0 0 .857-.408 2.0246 2.0246 0 0 0 .593-.694 2.09 2.09 0 0 0 .221-.984v-1.451a1.96305 1.96305 0 0 0 -.28-1.048 3.65765 3.65765 0 0 0 -.696-.828"/><path d="m34.3188 48.08438c-.059.512-.118 1.016-.177 1.508-.06.495-.114.932-.163 1.317-.05.384-.09.694-.118.932a1.72988 1.72988 0 0 1 -.059.355c-.12-.719-.225-1.365-.319-1.937q-.13949-.858-.311-1.915-.16951-1.05748-.346-2.086c-.118-.686-.23-1.32-.333-1.907q-.156-.88052-.273-1.399c-.021-.109-.111-.196-.275-.265a1.24 1.24 0 0 0 -.495-.102 1.50864 1.50864 0 0 0 -.466.079.38746.38746 0 0 0 -.288.274c-.08.325-.17.781-.274 1.368q-.1545.8805-.332 1.907-.177 1.029-.348 2.092-.16949 1.068-.311 1.93-.1395.867-.318 1.961a1.69554 1.69554 0 0 1 -.066-.355c-.035-.238-.074-.548-.119-.932-.044-.385-.096-.822-.155-1.317-.059-.492-.119-.996-.178-1.508-.137-1.204-.617-5.533-.617-5.533l-1.808.001v.445a.76761.76761 0 0 0 .104.414.74227.74227 0 0 0 .222.237.73285.73285 0 0 1 .133.134.493.493 0 0 1 .088.19c.144 1.233.274 2.369.396 3.415a.578.578 0 0 0 .13 1.106l.007.065q.102.87148.2 1.701.09448.82648.176 1.487c.055.438.099.796.134 1.07.035.277.051.424.051.444a.47644.47644 0 0 0 .097.229.2685.2685 0 0 0 .229.112h1.672a.34391.34391 0 0 0 .251-.088.82179.82179 0 0 0 .162-.281l1.258-7.204 1.228 7.204a.80592.80592 0 0 0 .162.281.34316.34316 0 0 0 .252.088h1.656a.26724.26724 0 0 0 .229-.112.48439.48439 0 0 0 .096-.229c0-.02.017-.167.052-.444.035-.274.079-.632.134-1.07.052-.44.112-.936.177-1.487q.096-.831.199-1.701l.007-.065a.57914.57914 0 0 0 .13-1.106c.12-1.046.252-2.181.396-3.415a.46635.46635 0 0 1 .089-.19.69756.69756 0 0 1 .132-.134.74672.74672 0 0 0 .325-.651v-.445l-1.801.006s-.486 4.322-.624 5.526"/><path d="m69.687 47.92328a.57956.57956 0 0 0 -.487-.571c-.069-.39-.139-.781-.206-1.16q-.141-.79948-.251-1.442-.111-.64351-.185-1.058c-.049-.276-.074-.434-.074-.473a.74017.74017 0 0 0 -.236-.465.74777.74777 0 0 0 -.547-.202h-1.983v.342c0 .423.123.685.37.784a.12146.12146 0 0 1 .074.125 1.71338 1.71338 0 0 1 -.015.214c0 .01-.021.133-.066.37-.045.238-.104.548-.178.932q-.10949.576-.244 1.309c-.043.235-.087.475-.132.716a.57835.57835 0 0 0 -.211 1.113c-.281 1.501-.951 5.158-.951 5.158h1.408s.409-2.494.419-2.542c.019-.198.108-.296.266-.296h1.686a.40463.40463 0 0 1 .222.057.34466.34466 0 0 1 .118.239c0 .048.331 2.542.331 2.542l1.491.011s-.612-3.476-.916-5.201a.57677.57677 0 0 0 .297-.502m-1.499 1.553a.19939.19939 0 0 1 -.162.071h-1.391a.18978.18978 0 0 1 -.148-.066.19311.19311 0 0 1 -.043-.169c0-.009.012-.094.036-.252.025-.157.056-.359.097-.606.038-.246.083-.525.132-.835.049-.312.104-.628.163-.955l.443-2.573h.031l.443 2.573c.059.327.113.643.164.955.048.31.092.589.132.835.039.247.074.449.103.606.03.158.044.243.044.252a.19752.19752 0 0 1 -.044.164"/><path d="m51.89059 52.47668c-.049-.03-.09-.057-.125-.081s-.052-.086-.052-.185v-2.529a2.83833 2.83833 0 0 0 -.163-.989 1.47278 1.47278 0 0 0 -.502-.697c-.109-.107-.118-.206-.03-.295a1.86034 1.86034 0 0 0 .502-.644 1.93005 1.93005 0 0 0 .193-.864v-1.169a3.557 3.557 0 0 0 -.133-.999 2.03687 2.03687 0 0 0 -.422-.776 1.945 1.945 0 0 0 -.732-.509 2.77484 2.77484 0 0 0 -1.08-.187h-3.045v.429a.83022.83022 0 0 0 .111.474.77126.77126 0 0 0 .228.236.29488.29488 0 0 1 .104.096.33557.33557 0 0 1 .045.185v3.385a.57822.57822 0 0 0 0 1.132v5.125l1.448.008v-4.872c0-.138.065-.208.193-.208h.916a.8.8 0 0 1 .689.29 1.32525 1.32525 0 0 1 .214.804v3.254a.66827.66827 0 0 0 .753.724h1.228v-.576a.52109.52109 0 0 0 -.111-.377 1.33645 1.33645 0 0 0 -.229-.185m-1.641-6.284a1.43946 1.43946 0 0 1 -.214.828.77666.77666 0 0 1 -.689.31h-.931a.20139.20139 0 0 1 -.119-.045.13882.13882 0 0 1 -.059-.117v-3.167c0-.136.079-.204.236-.204h.873a.78885.78885 0 0 1 .689.302 1.39933 1.39933 0 0 1 .214.82z"/><path d="m56.519 49.27817a.43832.43832 0 0 0 -.222.444c0 .058.013 2.56-.021 2.614a.17212.17212 0 0 1 -.155.081h-1.302a.15219.15219 0 0 1 -.148-.088.4624.4624 0 0 1 -.044-.208l-.015-8.133a.46245.46245 0 0 1 .037-.221.32183.32183 0 0 1 .111-.105 1.12948 1.12948 0 0 0 .236-.251.67894.67894 0 0 0 .119-.414v-.444h-2.47v.444a.68555.68555 0 0 0 .119.414 1.17556 1.17556 0 0 0 .235.251.40829.40829 0 0 1 .119.105.38675.38675 0 0 1 .044.221v3.366a.57915.57915 0 0 0 0 1.136v5.125h4.2a.35988.35988 0 0 0 .237-.102.35544.35544 0 0 0 .118-.281v-4.056h-.621a1.43956 1.43956 0 0 0 -.577.102"/><path d="m25.10341 42.56516a.26263.26263 0 0 0 -.073-.01h-.027l-.001-.002h-4.689v.429a1.03547 1.03547 0 0 0 .082.459.50485.50485 0 0 0 .229.236.48127.48127 0 0 1 .133.119.31807.31807 0 0 1 .06.206v3.352a.57893.57893 0 0 0 0 1.136v5.125h4.213a.25237.25237 0 0 0 .106-.022.38414.38414 0 0 0 .14-.08.35354.35354 0 0 0 .11-.268v-3.13h-.622a1.46541 1.46541 0 0 0 -.578.102.44146.44146 0 0 0 -.222.445c0 .059.014 1.62-.02 1.674a.17271.17271 0 0 1 -.156.081h-1.344c-.119 0-.178-.069-.178-.206v-3.446c0-.139.073-.206.221-.206h1.776c.146 0 .222-.069.222-.21v-.826a.19126.19126 0 0 0 -.082-.171.29947.29947 0 0 0 -.157-.051h-1.759c-.148 0-.221-.069-.221-.207v-3.092a.21277.21277 0 0 1 .066-.155.19644.19644 0 0 1 .141-.065h1.415a.1559.1559 0 0 1 .056.05c.034.054.02 1.615.02 1.675a.43988.43988 0 0 0 .222.444 1.44607 1.44607 0 0 0 .578.104h.622v-3.176a.31758.31758 0 0 0 -.104-.224.33586.33586 0 0 0 -.179-.09"/><path d="m63.1201 42.56516a.26459.26459 0 0 0 -.074-.01h-.027v-.002h-4.69v.429a1.04985 1.04985 0 0 0 .082.459.50485.50485 0 0 0 .229.236.48144.48144 0 0 1 .133.119.318.318 0 0 1 .06.206v3.352a.57893.57893 0 0 0 0 1.136v5.125h4.213a.25673.25673 0 0 0 .107-.022.38013.38013 0 0 0 .139-.08.35.35 0 0 0 .11-.268v-3.13h-.622a1.46023 1.46023 0 0 0 -.577.102.43992.43992 0 0 0 -.222.445c0 .059.014 1.62-.021 1.674a.1733.1733 0 0 1 -.155.081h-1.346c-.118 0-.177-.069-.177-.206v-3.446c0-.139.074-.206.221-.206h1.776c.147 0 .221-.069.221-.21v-.826a.187.187 0 0 0 -.082-.171.29053.29053 0 0 0 -.155-.051h-1.76c-.147 0-.221-.069-.221-.207v-3.092a.2127.2127 0 0 1 .066-.155.20158.20158 0 0 1 .141-.065h1.415a.14836.14836 0 0 1 .056.05c.035.054.021 1.615.021 1.675a.43835.43835 0 0 0 .222.444 1.441 1.441 0 0 0 .577.104h.622v-3.176a.31623.31623 0 0 0 -.103-.224.34319.34319 0 0 0 -.179-.09"/><path d="m45.42789 47.3483v-2.697a2.28856 2.28856 0 0 0 -.199-.983 1.91314 1.91314 0 0 0 -.547-.693 2.3024 2.3024 0 0 0 -.822-.406 3.97308 3.97308 0 0 0 -2.039 0 2.35279 2.35279 0 0 0 -.829.406 1.87124 1.87124 0 0 0 -.555.693 2.28841 2.28841 0 0 0 -.199.983v2.7a.57676.57676 0 0 0 0 1.141v3.023a2.29159 2.29159 0 0 0 .199.985 1.9277 1.9277 0 0 0 .555.7 2.2843 2.2843 0 0 0 .829.414 3.94528 3.94528 0 0 0 2.039 0 2.23627 2.23627 0 0 0 .822-.414 1.97247 1.97247 0 0 0 .547-.7 2.29174 2.29174 0 0 0 .199-.985v-3.019a.577.577 0 0 0 0-1.148m-1.449 4.109a1.06559 1.06559 0 0 1 -.103.494.96532.96532 0 0 1 -.266.325 1.07653 1.07653 0 0 1 -.363.185 1.40809 1.40809 0 0 1 -.407.06 1.48154 1.48154 0 0 1 -.414-.06 1.05128 1.05128 0 0 1 -.369-.185.92056.92056 0 0 1 -.266-.325 1.05291 1.05291 0 0 1 -.104-.494v-6.744a1.06587 1.06587 0 0 1 .104-.497.94433.94433 0 0 1 .266-.324 1.086 1.086 0 0 1 .369-.185 1.48 1.48 0 0 1 .414-.059 1.407 1.407 0 0 1 .407.059 1.114 1.114 0 0 1 .363.185.99174.99174 0 0 1 .266.324 1.07872 1.07872 0 0 1 .103.497z"/><path d="m17.9476 49.83066c0 .029-.007.033-.022.016-.014-.023-.027-.042-.036-.06q-.06-.1935-.238-.769-.177-.57751-.406-1.34-.231-.76049-.488-1.597-.25952-.83547-.481-1.538c-.148-.469-.272-.858-.37-1.175q-.147-.474-.147-.503a.50693.50693 0 0 0 -.134-.23.38463.38463 0 0 0 -.266-.082h-1.671v.489a.93534.93534 0 0 0 .074.406.723.723 0 0 0 .178.245.76229.76229 0 0 0 .251.163v3.499a.57814.57814 0 0 0 0 1.137v5.135h1.301v-7.05c0-.059.006-.083.014-.074a.13827.13827 0 0 1 .031.044c0 .009.049.171.147.481.099.311.222.697.37 1.162q.222.69451.481 1.507.258.8145.488 1.532c.153.476.283.888.391 1.227.109.34.173.533.193.584a2.66416 2.66416 0 0 0 .155.414.28354.28354 0 0 0 .274.162h.858a.31593.31593 0 0 0 .266-.118.43623.43623 0 0 0 .089-.265v-4.755a.5764.5764 0 0 0 0-1.109v-3.41a.46745.46745 0 0 1 .051-.191.57639.57639 0 0 1 .097-.119 1.2024 1.2024 0 0 0 .236-.251.69155.69155 0 0 0 .118-.416v-.429l-1.804.014z"/><path d="m75.2861 49.83066c0 .029-.008.033-.023.016-.015-.023-.026-.042-.036-.06-.041-.129-.119-.385-.237-.769q-.177-.57751-.408-1.34c-.153-.507-.314-1.04-.488-1.597q-.25648-.83547-.479-1.538c-.149-.469-.272-.858-.371-1.175-.098-.316-.148-.484-.148-.503a.496.496 0 0 0 -.132-.23.38912.38912 0 0 0 -.267-.082h-1.67v.489a.93551.93551 0 0 0 .074.406.71932.71932 0 0 0 .176.245.782.782 0 0 0 .253.163v3.499a.57814.57814 0 0 0 0 1.137v5.135h1.301v-7.05c0-.059.004-.083.014-.074a.13873.13873 0 0 1 .03.044c0 .009.05.171.148.481.098.311.221.697.369 1.162.149.463.308.965.482 1.507q.258.8145.487 1.532c.153.476.283.888.392 1.227.109.34.172.533.193.584a2.66628 2.66628 0 0 0 .155.414.28264.28264 0 0 0 .274.162h.858a.31588.31588 0 0 0 .266-.118.44153.44153 0 0 0 .088-.265v-4.756a.57538.57538 0 0 0 0-1.108v-3.41a.46718.46718 0 0 1 .051-.191.577.577 0 0 1 .097-.119 1.20246 1.20246 0 0 0 .236-.251.68493.68493 0 0 0 .118-.416v-.429l-1.803.014z"/><path d="m82.2077 48.18918a5.89605 5.89605 0 0 0 -.75-.566.59864.59864 0 0 0 .021-.146.58109.58109 0 0 0 -.58-.58.57285.57285 0 0 0 -.367.135c-.047-.032-.097-.063-.143-.094a5.00969 5.00969 0 0 1 -.695-.54.77151.77151 0 0 1 -.282-.561v-1.465a.44252.44252 0 0 1 .105-.288.87887.87887 0 0 1 .266-.214 1.36864 1.36864 0 0 1 .34-.132 1.39269 1.39269 0 0 1 .34-.046 1.75553 1.75553 0 0 1 .333.036 1.35715 1.35715 0 0 1 .339.119.779.779 0 0 1 .26.215.49253.49253 0 0 1 .103.31v.548a.7775.7775 0 0 0 .253.592.87183.87183 0 0 0 .619.236h.666v-1.096a2.37031 2.37031 0 0 0 -.191-.984 1.86519 1.86519 0 0 0 -.54-.693 2.51319 2.51319 0 0 0 -.814-.415 3.51384 3.51384 0 0 0 -1.013-.14 3.83242 3.83242 0 0 0 -1.006.126 2.20737 2.20737 0 0 0 -.799.399 1.86065 1.86065 0 0 0 -.532.696 2.42577 2.42577 0 0 0 -.191 1.011v1.052a1.95552 1.95552 0 0 0 .272 1.057 3.01892 3.01892 0 0 0 .688.762 7.18381 7.18381 0 0 0 .874.585.56774.56774 0 0 0 -.053.237.57808.57808 0 0 0 1.023.371 3.007 3.007 0 0 1 .633.587 1.30992 1.30992 0 0 1 .274.837v1.568a.58042.58042 0 0 1 -.112.348 1.00727 1.00727 0 0 1 -.287.266 1.79366 1.79366 0 0 1 -.384.178 1.25393 1.25393 0 0 1 -.4.066 1.42618 1.42618 0 0 1 -.399-.06 1.49392 1.49392 0 0 1 -.378-.162 1.03621 1.03621 0 0 1 -.281-.252.55557.55557 0 0 1 -.11-.34v-.635a.69051.69051 0 0 0 -.199-.527.86536.86536 0 0 0 -.6-.185h-.71v1.111a2.13791 2.13791 0 0 0 .215.984 1.97133 1.97133 0 0 0 .577.694 2.4862 2.4862 0 0 0 .85.408 4.124 4.124 0 0 0 2.07 0 2.54891 2.54891 0 0 0 .857-.408 2.0246 2.0246 0 0 0 .593-.694 2.09 2.09 0 0 0 .221-.984v-1.451a1.96305 1.96305 0 0 0 -.28-1.048 3.65765 3.65765 0 0 0 -.696-.828"/><path d="m34.3188 48.08438c-.059.512-.118 1.016-.177 1.508-.06.495-.114.932-.163 1.317-.05.384-.09.694-.118.932a1.72988 1.72988 0 0 1 -.059.355c-.12-.719-.225-1.365-.319-1.937q-.13949-.858-.311-1.915-.16951-1.05748-.346-2.086c-.118-.686-.23-1.32-.333-1.907q-.156-.88052-.273-1.399c-.021-.109-.111-.196-.275-.265a1.24 1.24 0 0 0 -.495-.102 1.50864 1.50864 0 0 0 -.466.079.38746.38746 0 0 0 -.288.274c-.08.325-.17.781-.274 1.368q-.1545.8805-.332 1.907-.177 1.029-.348 2.092-.16949 1.068-.311 1.93-.1395.867-.318 1.961a1.69554 1.69554 0 0 1 -.066-.355c-.035-.238-.074-.548-.119-.932-.044-.385-.096-.822-.155-1.317-.059-.492-.119-.996-.178-1.508-.137-1.204-.617-5.533-.617-5.533l-1.808.001v.445a.76761.76761 0 0 0 .104.414.74227.74227 0 0 0 .222.237.73285.73285 0 0 1 .133.134.493.493 0 0 1 .088.19c.144 1.233.274 2.369.396 3.415a.578.578 0 0 0 .13 1.106l.007.065q.102.87148.2 1.701.09448.82648.176 1.487c.055.438.099.796.134 1.07.035.277.051.424.051.444a.47644.47644 0 0 0 .097.229.2685.2685 0 0 0 .229.112h1.672a.34391.34391 0 0 0 .251-.088.82179.82179 0 0 0 .162-.281l1.258-7.204 1.228 7.204a.80592.80592 0 0 0 .162.281.34316.34316 0 0 0 .252.088h1.656a.26724.26724 0 0 0 .229-.112.48439.48439 0 0 0 .096-.229c0-.02.017-.167.052-.444.035-.274.079-.632.134-1.07.052-.44.112-.936.177-1.487q.096-.831.199-1.701l.007-.065a.57914.57914 0 0 0 .13-1.106c.12-1.046.252-2.181.396-3.415a.46635.46635 0 0 1 .089-.19.69756.69756 0 0 1 .132-.134.74672.74672 0 0 0 .325-.651v-.445l-1.801.006s-.486 4.322-.624 5.526"/><path d="m69.687 47.92328a.57956.57956 0 0 0 -.487-.571c-.069-.39-.139-.781-.206-1.16q-.141-.79948-.251-1.442-.111-.64351-.185-1.058c-.049-.276-.074-.434-.074-.473a.74017.74017 0 0 0 -.236-.465.74777.74777 0 0 0 -.547-.202h-1.983v.342c0 .423.123.685.37.784a.12146.12146 0 0 1 .074.125 1.71338 1.71338 0 0 1 -.015.214c0 .01-.021.133-.066.37-.045.238-.104.548-.178.932q-.10949.576-.244 1.309c-.043.235-.087.475-.132.716a.57835.57835 0 0 0 -.211 1.113c-.281 1.501-.951 5.158-.951 5.158h1.408s.409-2.494.419-2.542c.019-.198.108-.296.266-.296h1.686a.40463.40463 0 0 1 .222.057.34466.34466 0 0 1 .118.239c0 .048.331 2.542.331 2.542l1.491.011s-.612-3.476-.916-5.201a.57677.57677 0 0 0 .297-.502m-1.499 1.553a.19939.19939 0 0 1 -.162.071h-1.391a.18978.18978 0 0 1 -.148-.066.19311.19311 0 0 1 -.043-.169c0-.009.012-.094.036-.252.025-.157.056-.359.097-.606.038-.246.083-.525.132-.835.049-.312.104-.628.163-.955l.443-2.573h.031l.443 2.573c.059.327.113.643.164.955.048.31.092.589.132.835.039.247.074.449.103.606.03.158.044.243.044.252a.19752.19752 0 0 1 -.044.164"/><path d="m51.89059 52.47668c-.049-.03-.09-.057-.125-.081s-.052-.086-.052-.185v-2.529a2.83833 2.83833 0 0 0 -.163-.989 1.47278 1.47278 0 0 0 -.502-.697c-.109-.107-.118-.206-.03-.295a1.86034 1.86034 0 0 0 .502-.644 1.93005 1.93005 0 0 0 .193-.864v-1.169a3.557 3.557 0 0 0 -.133-.999 2.03687 2.03687 0 0 0 -.422-.776 1.945 1.945 0 0 0 -.732-.509 2.77484 2.77484 0 0 0 -1.08-.187h-3.045v.429a.83022.83022 0 0 0 .111.474.77126.77126 0 0 0 .228.236.29488.29488 0 0 1 .104.096.33557.33557 0 0 1 .045.185v3.385a.57822.57822 0 0 0 0 1.132v5.125l1.448.008v-4.872c0-.138.065-.208.193-.208h.916a.8.8 0 0 1 .689.29 1.32525 1.32525 0 0 1 .214.804v3.254a.66827.66827 0 0 0 .753.724h1.228v-.576a.52109.52109 0 0 0 -.111-.377 1.33645 1.33645 0 0 0 -.229-.185m-1.641-6.284a1.43946 1.43946 0 0 1 -.214.828.77666.77666 0 0 1 -.689.31h-.931a.20139.20139 0 0 1 -.119-.045.13882.13882 0 0 1 -.059-.117v-3.167c0-.136.079-.204.236-.204h.873a.78885.78885 0 0 1 .689.302 1.39933 1.39933 0 0 1 .214.82z"/><path d="m56.519 49.27817a.43832.43832 0 0 0 -.222.444c0 .058.013 2.56-.021 2.614a.17212.17212 0 0 1 -.155.081h-1.302a.15219.15219 0 0 1 -.148-.088.4624.4624 0 0 1 -.044-.208l-.015-8.133a.46245.46245 0 0 1 .037-.221.32183.32183 0 0 1 .111-.105 1.12948 1.12948 0 0 0 .236-.251.67894.67894 0 0 0 .119-.414v-.444h-2.47v.444a.68555.68555 0 0 0 .119.414 1.17556 1.17556 0 0 0 .235.251.40829.40829 0 0 1 .119.105.38675.38675 0 0 1 .044.221v3.366a.57915.57915 0 0 0 0 1.136v5.125h4.2a.35988.35988 0 0 0 .237-.102.35544.35544 0 0 0 .118-.281v-4.056h-.621a1.43956 1.43956 0 0 0 -.577.102"/><path d="m25.10341 42.56516a.26263.26263 0 0 0 -.073-.01h-.027l-.001-.002h-4.689v.429a1.03547 1.03547 0 0 0 .082.459.50485.50485 0 0 0 .229.236.48127.48127 0 0 1 .133.119.31807.31807 0 0 1 .06.206v3.352a.57893.57893 0 0 0 0 1.136v5.125h4.213a.25237.25237 0 0 0 .106-.022.38414.38414 0 0 0 .14-.08.35354.35354 0 0 0 .11-.268v-3.13h-.622a1.46541 1.46541 0 0 0 -.578.102.44146.44146 0 0 0 -.222.445c0 .059.014 1.62-.02 1.674a.17271.17271 0 0 1 -.156.081h-1.344c-.119 0-.178-.069-.178-.206v-3.446c0-.139.073-.206.221-.206h1.776c.146 0 .222-.069.222-.21v-.826a.19126.19126 0 0 0 -.082-.171.29947.29947 0 0 0 -.157-.051h-1.759c-.148 0-.221-.069-.221-.207v-3.092a.21277.21277 0 0 1 .066-.155.19644.19644 0 0 1 .141-.065h1.415a.1559.1559 0 0 1 .056.05c.034.054.02 1.615.02 1.675a.43988.43988 0 0 0 .222.444 1.44607 1.44607 0 0 0 .578.104h.622v-3.176a.31758.31758 0 0 0 -.104-.224.33586.33586 0 0 0 -.179-.09"/><path d="m63.1201 42.56516a.26459.26459 0 0 0 -.074-.01h-.027v-.002h-4.69v.429a1.04985 1.04985 0 0 0 .082.459.50485.50485 0 0 0 .229.236.48144.48144 0 0 1 .133.119.318.318 0 0 1 .06.206v3.352a.57893.57893 0 0 0 0 1.136v5.125h4.213a.25673.25673 0 0 0 .107-.022.38013.38013 0 0 0 .139-.08.35.35 0 0 0 .11-.268v-3.13h-.622a1.46023 1.46023 0 0 0 -.577.102.43992.43992 0 0 0 -.222.445c0 .059.014 1.62-.021 1.674a.1733.1733 0 0 1 -.155.081h-1.346c-.118 0-.177-.069-.177-.206v-3.446c0-.139.074-.206.221-.206h1.776c.147 0 .221-.069.221-.21v-.826a.187.187 0 0 0 -.082-.171.29053.29053 0 0 0 -.155-.051h-1.76c-.147 0-.221-.069-.221-.207v-3.092a.2127.2127 0 0 1 .066-.155.20158.20158 0 0 1 .141-.065h1.415a.14836.14836 0 0 1 .056.05c.035.054.021 1.615.021 1.675a.43835.43835 0 0 0 .222.444 1.441 1.441 0 0 0 .577.104h.622v-3.176a.31623.31623 0 0 0 -.103-.224.34319.34319 0 0 0 -.179-.09"/><path d="m53.89211 1.93005c-.594 1.116.245 2.361.601 2.89606a9.33459 9.33459 0 0 1 1.796 5.122 7.11076 7.11076 0 0 1 -3.222 6.012 8.37555 8.37555 0 0 0 1.435-4.948c0-5.208-3.121-7.092-3.121-7.092s-.075.312-.265.312a11.88621 11.88621 0 0 1 -1.95-.87995c-.245-.132-.586-.33105-.705-.4 0 0-.509.268-.753.4a11.8114 11.8114 0 0 1 -1.95.87995c-.19 0-.266-.312-.266-.312s-3.12 1.884-3.12 7.092a8.3757 8.3757 0 0 0 1.435 4.948 7.114 7.114 0 0 1 -3.223-6.012 9.34258 9.34258 0 0 1 1.797-5.12195c.357-.535 1.195-1.78.601-2.89606a2.06733 2.06733 0 0 0 -2.085-.902c-8.53.143-26.983 3.865-39.545 11.184a6.69541 6.69541 0 0 0 6.013 3.165q-.924.45153-1.844.926a6.40316 6.40316 0 0 0 6.237 2.603q-1.0995.52056-2.19 1.066a8.08865 8.08865 0 0 0 6.753 2.914c-1.07.54-1.716.884-1.712.883a9.644 9.644 0 0 0 8.018 2.171c-.535.39-1.075.803-1.714 1.249a13.91376 13.91376 0 0 0 7.914 1.377c-.552.419-1.103.84-1.654 1.268-.01-.058 6.55 1.795 11.217-.261.173-.076.339-.163.505-.249a9.89431 9.89431 0 0 0 19.084.001c.167.085.331.172.504.248 4.667 2.056 11.226.203 11.218.261-.55-.428-1.102-.849-1.655-1.268a13.90355 13.90355 0 0 0 7.913-1.377c-.636-.446-1.176-.859-1.712-1.249a9.6379 9.6379 0 0 0 8.016-2.171c.004.001-.641-.343-1.71-.883a8.09071 8.09071 0 0 0 6.753-2.914q-1.09049-.54758-2.192-1.066a6.404 6.404 0 0 0 6.238-2.603q-.918-.47406-1.842-.926a6.69639 6.69639 0 0 0 6.012-3.165c-12.563-7.319-31.016-11.041-39.544-11.184-1.029-.018-1.727.233-2.086.902"/></g><path d="m55.994.001-.114-.001a2.99242 2.99242 0 0 0 -2.895 1.447 2.96065 2.96065 0 0 0 -.172 2.324 3.78734 3.78734 0 0 0 -.596-.521 11.39314 11.39314 0 0 0 -1.513-.937s.108.673-.14.593a4.1894 4.1894 0 0 1 -.418-.172c-.695-.33-1.701-.936-1.701-.936s-1.022.606-1.716.936a4.29529 4.29529 0 0 1 -.419.172c-.247.07995-.14-.593-.14-.593a11.41611 11.41611 0 0 0 -1.512.937 3.75348 3.75348 0 0 0 -.597.521 2.95638 2.95638 0 0 0 -.172-2.324 2.99243 2.99243 0 0 0 -2.895-1.447l-.113.001c-8.558.144-27.204 3.841-40.044 11.323l-.837.518a7.47779 7.47779 0 0 0 4.374 4.125l-.424.204s1.758 2.854 4.493 3.446l-.522.217a9.02441 9.02441 0 0 0 5.664 3.773l-.552.27a10.95291 10.95291 0 0 0 6.754 3.138l-.593.452a16.50513 16.50513 0 0 0 6.707 2.259l-.643.572s7.085 2.591 13.019.432a10.9673 10.9673 0 0 0 10.159 6.899h.002a10.9687 10.9687 0 0 0 10.16-6.899c5.932 2.159 13.018-.432 13.018-.432l-.642-.572a16.51272 16.51272 0 0 0 6.707-2.259l-.595-.452a10.94106 10.94106 0 0 0 6.753-3.138l-.55-.27a9.02071 9.02071 0 0 0 5.664-3.773l-.522-.217c2.733-.592 4.493-3.446 4.493-3.446l-.423-.204a7.47465 7.47465 0 0 0 4.372-4.125l-.836-.518c-12.84-7.482-31.485-11.179-40.043-11.323m33.516 15.376q.924.45154 1.842.926a6.40413 6.40413 0 0 1 -6.238 2.603q1.101.52047 2.192 1.066a8.09067 8.09067 0 0 1 -6.753 2.914c1.069.54 1.714.884 1.71.883a9.6379 9.6379 0 0 1 -8.016 2.171c.536.39 1.076.804 1.712 1.25a13.91742 13.91742 0 0 1 -7.913 1.376c.553.419 1.105.84 1.655 1.268.008-.057-6.551 1.795-11.218-.261-.173-.076-.337-.163-.504-.248a9.89432 9.89432 0 0 1 -19.084-.001c-.166.086-.332.173-.505.249-4.667 2.056-11.227.204-11.216.261.55-.428 1.101-.849 1.653-1.268a13.92769 13.92769 0 0 1 -7.914-1.376c.639-.446 1.179-.86 1.714-1.25a9.64393 9.64393 0 0 1 -8.018-2.171c-.004.001.642-.343 1.712-.883a8.08855 8.08855 0 0 1 -6.753-2.914q1.092-.54748 2.19-1.066a6.40475 6.40475 0 0 1 -6.237-2.603q.91948-.474 1.844-.926a6.69536 6.69536 0 0 1 -6.013-3.165c12.562-7.319 31.016-11.041 39.545-11.184a2.06738 2.06738 0 0 1 2.085.902c.594 1.116-.244 2.361-.601 2.896a9.34287 9.34287 0 0 0 -1.797 5.122 7.11391 7.11391 0 0 0 3.223 6.012 8.37555 8.37555 0 0 1 -1.435-4.948c0-5.208 3.12-7.092 3.12-7.092s.076.312.266.312a11.813 11.813 0 0 0 1.95-.88c.244-.132.753-.4.753-.4.12.069.46.268.705.4a11.88776 11.88776 0 0 0 1.95.88c.19 0 .265-.312.265-.312s3.121 1.884 3.121 7.092a8.37555 8.37555 0 0 1 -1.435 4.948 7.10828 7.10828 0 0 0 3.222-6.012 9.33481 9.33481 0 0 0 -1.796-5.122c-.356-.535-1.195-1.78-.601-2.896.359-.669 1.057-.92 2.086-.902 8.528.143 26.981 3.86506 39.544 11.184a6.69637 6.69637 0 0 1 -6.012 3.165" fill="#c69e66"/><path d="m34.84959 7.83954a105.76968 105.76968 0 0 0 -19.025 4.601c1.601 2.849 5.945 1.653 5.945 1.653 8.15-2.306 11.787-3.088 12.954-3.314a16.62014 16.62014 0 0 1 .126-2.94" fill="#c69e66"/><path d="m34.92061 12.52264a101.88767 101.88767 0 0 0 -15.134 4.23706s2.142 2.43995 6.39 1.234c3.574-1.013 8.156-2.475 9.523-2.913a11.306 11.306 0 0 1 -.779-2.558" fill="#c69e66"/><path d="m36.4135 16.42859c-1.452.469-8.71 2.82-11.773 3.997 0 0 1.758 2.357 6.832.359 3.534-1.392 5.482-2.205 6.34-2.571a10.91608 10.91608 0 0 1 -1.399-1.785" fill="#c69e66"/><path d="m38.9339 19.23865c-1.268.551-5.978 2.609-8.702 3.92 0 0 3.428 1.685 7.741-.979l2.681-1.76a13.92494 13.92494 0 0 1 -1.72-1.181" fill="#c69e66"/><path d="m62.0239 7.83954a105.793 105.793 0 0 1 19.026 4.601c-1.601 2.849-5.945 1.653-5.945 1.653-8.151-2.306-11.787-3.088-12.954-3.314a16.6292 16.6292 0 0 0 -.127-2.94" fill="#c69e66"/><path d="m61.9538 12.52264a101.888 101.888 0 0 1 15.134 4.23706s-2.143 2.43995-6.391 1.234c-3.573-1.013-8.155-2.475-9.522-2.913a11.41 11.41 0 0 0 .779-2.558" fill="#c69e66"/><path d="m60.4608 16.42859c1.451.469 8.71 2.82 11.772 3.997 0 0-1.757 2.357-6.831.359-3.535-1.392-5.482-2.205-6.341-2.571a10.921 10.921 0 0 0 1.4-1.785" fill="#c69e66"/><path d="m57.9404 19.23865c1.267.551 5.977 2.609 8.701 3.92 0 0-3.427 1.685-7.741-.979l-2.68-1.76a14.00153 14.00153 0 0 0 1.72-1.181" fill="#c69e66"/><path d="m34.84959 7.83954a105.76968 105.76968 0 0 0 -19.025 4.601c1.601 2.849 5.945 1.653 5.945 1.653 8.15-2.306 11.787-3.088 12.954-3.314a16.62014 16.62014 0 0 1 .126-2.94" fill="#c69e66"/><path d="m34.92061 12.52264a101.88767 101.88767 0 0 0 -15.134 4.23706s2.142 2.43995 6.39 1.234c3.574-1.013 8.156-2.475 9.523-2.913a11.306 11.306 0 0 1 -.779-2.558" fill="#c69e66"/><path d="m36.4135 16.42859c-1.452.469-8.71 2.82-11.773 3.997 0 0 1.758 2.357 6.832.359 3.534-1.392 5.482-2.205 6.34-2.571a10.91608 10.91608 0 0 1 -1.399-1.785" fill="#c69e66"/><path d="m38.9339 19.23865c-1.268.551-5.978 2.609-8.702 3.92 0 0 3.428 1.685 7.741-.979l2.681-1.76a13.92494 13.92494 0 0 1 -1.72-1.181" fill="#c69e66"/><path d="m62.0239 7.83954a105.793 105.793 0 0 1 19.026 4.601c-1.601 2.849-5.945 1.653-5.945 1.653-8.151-2.306-11.787-3.088-12.954-3.314a16.6292 16.6292 0 0 0 -.127-2.94" fill="#c69e66"/><path d="m61.9538 12.52264a101.888 101.888 0 0 1 15.134 4.23706s-2.143 2.43995-6.391 1.234c-3.573-1.013-8.155-2.475-9.522-2.913a11.41 11.41 0 0 0 .779-2.558" fill="#c69e66"/><path d="m60.4608 16.42859c1.451.469 8.71 2.82 11.772 3.997 0 0-1.757 2.357-6.831.359-3.535-1.392-5.482-2.205-6.341-2.571a10.921 10.921 0 0 0 1.4-1.785" fill="#c69e66"/><path d="m57.9404 19.23865c1.267.551 5.977 2.609 8.701 3.92 0 0-3.427 1.685-7.741-.979l-2.68-1.76a14.00153 14.00153 0 0 0 1.72-1.181" fill="#c69e66"/><path d="m35.77881 25.17889a5.13966 5.13966 0 0 0 2.862.113 9.86312 9.86312 0 0 1 .703-2.525c-1.257.814-2.658 1.742-3.565 2.412" fill="#c69e66"/><path d="m61.0947 25.17889c-.907-.67-2.306-1.598-3.563-2.41095a9.85215 9.85215 0 0 1 .703 2.525 5.13752 5.13752 0 0 0 2.86-.114" fill="#c69e66"/><path d="m41.4456 3.66187c.665-.951.331-1.332-2.189-1.094a102.0117 102.0117 0 0 0 -33.996 9.583 3.77616 3.77616 0 0 0 3.271.072c.665-.238 1.807-.713 1.807-.713 16.268-6.565 28.135-7.056 28.135-7.056-3.339 8.186.871 12.528 3.858 14.452.135-.106.272-.21.413-.309-7.695-6.7-1.805-14.213-1.299-14.935" fill="#fff"/><path d="m57.617 2.56805c-2.521-.238-2.854.143-2.189 1.09406.507.721 6.396 8.235-1.298 14.934.141.099.278.203.413.309 2.987-1.924 7.197-6.265 3.857-14.452 0 0 11.869.492 28.135 7.056 0 0 1.142.476 1.808.714a3.77871 3.77871 0 0 0 3.27-.073 102.024 102.024 0 0 0 -33.996-9.582" fill="#fff"/><path d="m51.0882 32.45917a9.83054 9.83054 0 0 1 -1.434.268 8.43545 8.43545 0 0 0 -.416.874l-.188.481v1.065a8.40959 8.40959 0 0 0 3.115-.841 3.43751 3.43751 0 0 1 -1.077-1.847" fill="#c69e66"/><path d="m47.22231 32.727a9.87131 9.87131 0 0 1 -1.435-.268 3.42636 3.42636 0 0 1 -1.078 1.847 8.42933 8.42933 0 0 0 3.115.842v-1.072l-.189-.48a8.2664 8.2664 0 0 0 -.413-.869" fill="#c69e66"/><path d="m46.77 13.33069.015-.025a1.13177 1.13177 0 0 0 -.286-1.399s-1.634.343-1.675-1.824a1.23985 1.23985 0 0 0 -.188-.684s.419-.381 1.329.304c.912.683 1.408 2.622 1.903 2.167.487-.452.312-2.978.567-3.073.251.095.078 2.621.567 3.073.495.455.987-1.484 1.902-2.167.909-.685 1.329-.304 1.329-.304a1.27964 1.27964 0 0 0 -.191.684c-.037 2.167-1.671 1.824-1.671 1.824a1.12348 1.12348 0 0 0 -.283 1.395.12173.12173 0 0 0 .016.026c1.031-1.107 1.834-1.548 2.279-1.371.004-.009.008-.017.011-.026a3.99805 3.99805 0 0 0 .473-2.236 5.57844 5.57844 0 0 0 -1.361-3.7s-.021.457-.791-.055a3.9744 3.9744 0 0 0 -4.57.003c-.744.50494-.78.05194-.78.05194a5.59831 5.59831 0 0 0 -1.359 3.7 4.27042 4.27042 0 0 0 .441 2.182c.011.028.022.055.034.083.443-.186 1.25.255 2.289 1.371" fill="#fff"/><path d="m46.0072 11.17285a.2601.2601 0 0 1 -.182-.319.23024.23024 0 0 1 .093-.13 2.04452 2.04452 0 0 0 -.329-.3s-.23 1.064.721.951a1.55106 1.55106 0 0 0 -.104-.23.26373.26373 0 0 1 -.199.028" fill="#da1a32"/><path d="m51.28441 10.42438a2.08366 2.08366 0 0 0 -.329.299.26955.26955 0 0 1 .093.13.25933.25933 0 0 1 -.383.292 1.58108 1.58108 0 0 0 -.101.229c.95.114.72-.95.72-.95" fill="#da1a32"/><path d="m47.1145 23.64709c-.7-3.683-1.253-6.407-1.698-8.383-.341-1.50995.567-.90595 1.056.038z" fill="#da1a32"/><path d="m49.76021 23.64709c.701-3.683 1.253-6.407 1.698-8.383.339-1.50995-.567-.90595-1.056.038z" fill="#da1a32"/><path d="m48.8829 25.01306c.302-5.68994.755-9.719.755-10.222a2.37311 2.37311 0 0 0 -.094-.663l-.331 1.082-.102-1.912a3.30122 3.30122 0 0 0 -.678-.635h-.018a3.11025 3.11025 0 0 0 -.652.634l-.1 1.913-.333-1.083a2.379 2.379 0 0 0 -.094.664c0 .503.451 4.532.754 10.222.302 5.69-.403 6.747-.403 6.747a11.539 11.539 0 0 1 .849 1.643 11.57264 11.57264 0 0 1 .852-1.643s-.706-1.057-.405-6.747" fill="#da1a32"/><path d="m55.6575 27.63358a8.4284 8.4284 0 0 0 1.104-2.539 8.46456 8.46456 0 0 0 -1.933-3.963 7.10434 7.10434 0 0 1 -.321 3.428l-.004.011a7.24484 7.24484 0 0 1 1.147 3.073z" fill="#fff"/><path d="m42.3667 24.55975a7.09222 7.09222 0 0 1 -.321-3.428 8.45758 8.45758 0 0 0 -1.931 3.955 8.61261 8.61261 0 0 0 1.1 2.569l.006.008a7.22176 7.22176 0 0 1 1.15-3.094z" fill="#fff"/><path d="m53.5616 23.41144a4.77783 4.77783 0 0 0 -.775-3.993 8.487 8.487 0 0 0 -1.244-.599c-.201.948-.409 1.942-.613 2.927l-.002.013a7.293 7.293 0 0 1 2.631 1.662z" fill="#fff"/><path d="m45.9532 21.74329c-.205-.98395-.414-1.97895-.616-2.925a8.34745 8.34745 0 0 0 -1.249.6 4.77786 4.77786 0 0 0 -.775 3.993l.002.01a7.28651 7.28651 0 0 1 2.641-1.665z" fill="#fff"/><path d="m56.7811 28.18167a9.71024 9.71024 0 0 1 -1.142 1.494l-.01.009a7.22961 7.22961 0 0 1 -1.092 2.883l.022-.021a8.46619 8.46619 0 0 0 2.222-4.365" fill="#fff"/><path d="m41.2355 29.67328a9.70381 9.70381 0 0 1 -1.144-1.492 8.4688 8.4688 0 0 0 2.225 4.367c.006.006.013.011.019.018a7.22889 7.22889 0 0 1 -1.092-2.885z" fill="#fff"/><path d="m52.2937 30.65866a8.72611 8.72611 0 0 0 3.357-3.015 7.245 7.245 0 0 0 -1.147-3.073 23.74664 23.74664 0 0 1 -.959 2.433 14.56222 14.56222 0 0 0 -1.251 3.655" fill="#c69e66"/><path d="m44.5849 30.68726a14.50136 14.50136 0 0 0 -1.254-3.684 23.91477 23.91477 0 0 1 -.961-2.434 7.23911 7.23911 0 0 0 -1.15 3.095 8.48763 8.48763 0 0 0 3.365 3.023" fill="#c69e66"/><path d="m49.9832 31.32687.054.108a8.73144 8.73144 0 0 0 .977-.25 13.32016 13.32016 0 0 1 1.408-4.676 16.8723 16.8723 0 0 0 1.137-3.087 7.27443 7.27443 0 0 0 -2.632-1.662c-.606 2.93-1.16 5.736-1.292 6.711a9.28081 9.28081 0 0 0 .348 2.856" fill="#c69e66"/><path d="m45.8615 31.199a8.59535 8.59535 0 0 0 .974.242l.058-.115a9.69544 9.69544 0 0 0 .348-2.961c-.156-1.067-.697-3.781-1.285-6.609a7.28677 7.28677 0 0 0 -2.641 1.665 16.826 16.826 0 0 0 1.136 3.088 13.23016 13.23016 0 0 1 1.41 4.69" fill="#c69e66"/><path d="m52.26711 32.04788c.007.055.012.112.02.167a2.47232 2.47232 0 0 0 .988 1.435 8.5723 8.5723 0 0 0 1.262-1.082 7.235 7.235 0 0 0 1.092-2.883 9.70289 9.70289 0 0 1 -3.362 2.363" fill="#c69e66"/><path d="m44.5882 32.21588c.009-.056.013-.113.02-.168a9.71212 9.71212 0 0 1 -3.365-2.367 7.2379 7.2379 0 0 0 1.092 2.885 8.558 8.558 0 0 0 1.265 1.084 2.46469 2.46469 0 0 0 .988-1.434" fill="#c69e66"/></svg>